Coordinates
version=1
nRows=27
nColumns=26
inDegrees=yes

Units are S.I. units (second, meters, Newtons, ...)
If the header above contains a line with 'inDegrees', this indicates whether rotational values are in degrees (yes) or radians (no).

endheader
time	pelvis_tilt	pelvis_list	pelvis_rotation	pelvis_tx	pelvis_ty	pelvis_tz	hip_flexion_r	hip_adduction_r	hip_rotation_r	knee_angle_r	knee_angle_r_beta	hip_flexion_l	hip_adduction_l	hip_rotation_l	knee_angle_l	knee_angle_l_beta	lumbar_extension	lumbar_bending	lumbar_rotation	ankle_angle_r	subtalar_angle_r	mtp_angle_r	ankle_angle_l	subtalar_angle_l	mtp_angle_l
      2.78666667	      3.03853717	      5.99592511	      4.49448093	     -0.10253883	      0.88165773	     -0.33742605	     26.19978516	     -9.20889357	     -8.25937429	     15.06420301	      0.26291994	    -18.42782425	      8.65789894	     -0.86419041	     11.60392064	      0.20252662	    -15.03195931	     -4.37123526	    -12.25626177	      2.55558798	      1.12694177	      0.00000000	     15.73571989	     -0.82589745	      0.00000000
      2.79333333	      3.31892837	      5.80938799	      4.36428341	     -0.09217050	      0.88105411	     -0.33662529	     26.08058466	     -8.86918978	     -8.28519163	     16.34664683	      0.28530281	    -18.89795081	      8.26029553	     -1.16976017	     12.61420699	      0.22015944	    -15.18423768	     -4.05412951	    -12.09792846	      2.18964834	      0.91873639	      0.00000000	     15.10394044	     -0.85581917	      0.00000000
      2.80000000	      3.52749170	      5.58095826	      4.26968212	     -0.08180954	      0.88045891	     -0.33571247	     26.01110252	     -8.48724558	     -8.20089960	     17.64401912	      0.30794623	    -19.14597201	      7.78481132	     -1.52545298	     13.88440384	      0.24232856	    -15.25258040	     -3.71709645	    -11.93703133	      1.77377094	      0.65768280	      0.00000000	     14.20619614	     -0.91379602	      0.00000000
      2.80666667	      3.58714673	      5.30581305	      4.20988772	     -0.07151267	      0.87977871	     -0.33477184	     26.06283776	     -8.05330761	     -7.94232041	     18.88030348	      0.32952346	    -19.05801984	      7.24110379	     -1.93804174	     15.47175843	      0.27003313	    -15.14206485	     -3.32450709	    -11.80824748	      1.27406351	      0.27388233	      0.00000000	     13.01787293	     -1.06348428	      0.00000000
      2.81333333	      3.54100334	      4.99321137	      4.19291318	     -0.06128418	      0.87908875	     -0.33365070	     26.19408731	     -7.56029332	     -7.51147599	     20.07314040	      0.35034239	    -18.70671111	      6.61344160	     -2.37823903	     17.31213097	      0.30215369	    -14.92349396	     -2.94744617	    -11.70589060	      0.71301084	     -0.26161869	      0.00000000	     11.63288862	     -1.31023413	      0.00000000
      2.82000000	      3.07978851	      4.69814289	      4.27260626	     -0.05135990	      0.87793918	     -0.33238372	     26.77878707	     -7.06268549	     -6.77254991	     21.21845344	      0.37033187	    -17.63719610	      5.98467197	     -2.70942277	     19.63537999	      0.34270203	    -14.26098845	     -2.66758486	    -11.75314296	     -0.26012034	     -1.88811581	      0.00000000	     10.09890737	     -2.06627521	      0.00000000
      2.82666667	      3.27729107	      4.30556612	      4.17382804	     -0.04116506	      0.87774948	     -0.33100356	     26.59072476	     -6.43488813	     -6.24878426	     22.32689506	      0.38967783	    -17.40213245	      5.21088062	     -3.25311866	     21.67403659	      0.37828330	    -14.34606597	     -2.19745777	    -11.57414406	     -0.47817661	     -2.08563130	      0.00000000	      8.39612376	     -1.99400652	      0.00000000
      2.83333333	      2.77395418	      3.80224669	      4.32441744	     -0.03138944	      0.87674629	     -0.32948679	     27.10268384	     -5.69752039	     -5.47206705	     23.27476711	      0.40622132	    -15.99698955	      4.24743501	     -3.64824026	     24.43987926	      0.42655636	    -13.63927473	     -1.72130157	    -11.62605822	     -1.17849908	     -3.62228768	      0.00000000	      6.36428161	     -2.62976662	      0.00000000
      2.84000000	      2.75096902	      3.20028063	      4.34327462	     -0.02129655	      0.87650387	     -0.32795069	     27.02105790	     -4.84364658	     -4.92352501	     24.15827574	      0.42164145	    -15.23106245	      3.14789135	     -4.16884225	     26.90527752	      0.46958568	    -13.45593356	     -1.04660025	    -11.50371852	     -1.13582446	     -4.02581211	      0.00000000	      4.12679677	     -2.61089253	      0.00000000
      2.84666667	      2.31229851	      2.60657484	      4.51699327	     -0.01171621	      0.87570986	     -0.32640517	     27.42883352	     -4.04057285	     -4.33367817	     25.07375987	      0.43761967	    -13.71349495	      2.03832897	     -4.41797592	     29.86429359	      0.52123025	    -12.85268644	     -0.45750150	    -11.52560738	     -1.42983480	     -5.38566217	      0.00000000	      1.83918151	     -3.18362882	      0.00000000
      2.85333333	      2.35797184	      1.95563229	      4.49813441	     -0.00172200	      0.87573238	     -0.32476172	     27.20349987	     -3.12091583	     -3.93151429	     25.86934992	      0.45150533	    -12.88345822	      0.85064738	     -4.88128244	     32.42739843	      0.56596487	    -12.77330548	      0.26730673	    -11.40807186	     -0.90240945	     -5.74350585	      0.00000000	     -0.67926259	     -2.97615008	      0.00000000
      2.86000000	      2.03870733	      1.18202511	      4.68082988	      0.00794426	      0.87533816	     -0.32324542	     27.29916034	     -2.14638657	     -3.64690637	     26.49537197	      0.46243148	    -11.38284719	     -0.48912369	     -5.04437563	     35.36950167	      0.61731426	    -12.27269779	      1.09977660	    -11.41280711	     -0.50099970	     -6.41485802	      0.00000000	     -3.32503382	     -3.27911496	      0.00000000
      2.86666667	      1.52837211	      0.46570019	      4.91952057	      0.01730385	      0.87475063	     -0.32188972	     27.61336782	     -1.28683564	     -3.45415647	     27.13007591	      0.47350915	     -9.54296418	     -1.71420667	     -4.95715656	     38.39043371	      0.67003947	    -11.59011229	      1.84931522	    -11.53808208	     -0.26952253	     -7.36021027	      0.00000000	     -5.84323740	     -4.01139184	      0.00000000
      2.87333333	      1.31223263	     -0.23387591	      5.04526876	      0.02684725	      0.87466669	     -0.32056716	     27.56534590	     -0.43244810	     -3.47096502	     27.74399544	      0.48422407	     -8.11089318	     -2.89058828	     -4.89524624	     41.11903421	      0.71766253	    -11.23825824	      2.64031349	    -11.49289225	      0.47102012	     -7.96472292	      0.00000000	     -8.33612262	     -4.31049552	      0.00000000
      2.88000000	      0.79528713	     -0.88220012	      5.25886679	      0.03603762	      0.87422908	     -0.31953458	     27.85516436	      0.26096961	     -3.66765155	     28.36087777	      0.49499070	     -6.16188889	     -3.91883432	     -4.57523343	     43.97964250	      0.76758957	    -10.55854650	      3.36555302	    -11.59005197	      0.92721048	     -8.61804676	      0.00000000	    -10.69013927	     -5.40306632	      0.00000000
      2.88666667	      0.51490826	     -1.52747238	      5.40251519	      0.04532179	      0.87427516	     -0.31854719	     27.78510626	      0.98261291	     -3.95095055	     28.81392975	      0.50289794	     -4.52277010	     -4.90480645	     -4.24426454	     46.57411524	      0.81287166	    -10.15289181	      4.12557200	    -11.58185019	      1.75758776	     -8.83847683	      0.00000000	    -12.84561062	     -6.16221990	      0.00000000
      2.89333333	      0.50590455	     -2.09913647	      5.44291474	      0.05468811	      0.87483860	     -0.31756125	     27.35204273	      1.67028278	     -4.29597993	     29.18513734	      0.50937674	     -3.25292423	     -5.78619244	     -3.97704796	     48.88258035	      0.85316197	    -10.08670282	      4.82556003	    -11.39861546	      2.86213515	     -8.98981365	      0.00000000	    -14.54155785	     -6.50067971	      0.00000000
      2.90000000	     -0.07752819	     -2.62686927	      5.65294518	      0.06361011	      0.87466434	     -0.31702327	     27.54730406	      2.13899072	     -4.79044527	     29.52478215	      0.51530466	     -1.10432835	     -6.43664884	     -3.32915950	     51.36913828	      0.89656060	     -9.35139229	      5.47033765	    -11.52305812	      3.68439467	     -8.74154051	      0.00000000	    -16.36087371	     -8.22070327	      0.00000000
      2.90666667	      0.21236201	     -2.60484622	      5.41129348	      0.07269706	      0.87616276	     -0.31616816	     26.64628607	      2.32140320	     -4.78787052	     29.67930366	      0.51800157	     -0.33931987	     -6.44263675	     -3.09997398	     53.07706809	      0.92636960	     -9.83100229	      5.49439671	    -11.14297931	      4.05422780	     -8.73413528	      0.00000000	    -16.80446356	     -8.38654214	      0.00000000
      2.91333333	     -0.33095985	     -3.76273433	      5.84105751	      0.08178051	      0.87600821	     -0.31571290	     26.60787938	      3.40259098	     -5.72601545	     29.58333793	      0.51632665	      2.01811779	     -7.86641208	     -2.35880942	     55.51864832	      0.96898321	     -8.96727080	      6.92245090	    -11.30107638	      5.56025369	     -8.35675722	      0.00000000	    -17.88023375	    -10.03927430	      0.00000000
      2.92000000	     -0.54486721	     -4.17592713	      5.90730648	      0.09060569	      0.87662909	     -0.31523656	     26.23630761	      3.82181298	     -6.22767526	     29.63681958	      0.51726008	      3.72359486	     -8.28780923	     -1.81240446	     57.39183029	      1.00167640	     -8.72549645	      7.46593475	    -11.13023808	      6.32441218	     -8.01162878	      0.00000000	    -18.14701461	    -11.38317709	      0.00000000
      2.92666667	     -0.83937347	     -4.59355925	      5.97932234	      0.09937216	      0.87729439	     -0.31481298	     25.86411414	      4.25581706	     -6.66472317	     29.48939242	      0.51468699	      5.54027984	     -8.64811349	     -1.23102274	     59.09791501	      1.03145320	     -8.38071502	      8.02110043	    -11.04869095	      7.08296675	     -7.49314040	      0.00000000	    -18.11329894	    -12.84493319	      0.00000000
      2.93333333	     -1.00203430	     -4.92913539	      5.99672413	      0.10803457	      0.87823073	     -0.31437331	     25.30458926	      4.64707437	     -6.99833040	     29.26344255	      0.51074342	      7.17016295	     -8.89235745	     -0.71623951	     60.56405954	      1.05704225	     -8.24701014	      8.47918800	    -10.84928739	      7.75152070	     -7.03725892	      0.00000000	    -17.65510404	    -14.09959948	      0.00000000
      2.94000000	     -1.09975768	     -5.22240860	      6.01219402	      0.11681652	      0.87936134	     -0.31391482	     24.60145569	      5.01184622	     -7.31161037	     28.91650399	      0.50468820	      8.68916622	     -9.08830886	     -0.24850960	     61.80454003	      1.07869272	     -8.15862290	      8.87296393	    -10.53343493	      8.35076447	     -6.66469443	      0.00000000	    -16.80954400	    -15.22236828	      0.00000000
      2.94666667	     -1.29467763	     -5.60320088	      6.03093362	      0.12546066	      0.88035046	     -0.31340155	     23.97778518	      5.47519779	     -7.61034830	     28.46056179	      0.49673051	     10.36527948	     -9.36264260	      0.21587040	     62.93585245	      1.09843784	     -7.95865594	      9.34662052	    -10.37512104	      8.91470015	     -6.10798097	      0.00000000	    -15.49443619	    -16.21189384	      0.00000000
      2.95333333	     -1.41723737	     -5.86745482	      6.02272457	      0.13414455	      0.88156717	     -0.31290160	     23.22527479	      5.83003320	     -7.85070577	     27.94270717	      0.48769224	     11.87591743	     -9.48285195	      0.64324106	     63.78197674	      1.11320550	     -7.86671422	      9.67919332	    -10.07948918	      9.39415369	     -5.64627277	      0.00000000	    -13.99287463	    -16.90305213	      0.00000000
      2.96000000	     -1.53731578	     -6.21649307	      6.01543635	      0.14276876	      0.88270830	     -0.31246982	     22.44667326	      6.28842903	     -8.08596456	     27.34506871	      0.47726148	     13.41961701	     -9.68760573	      1.04477342	     64.55875670	      1.12676287	     -7.74542687	     10.14370456	     -9.84781217	      9.88336433	     -5.02952877	      0.00000000	    -11.82356572	    -17.27353491	      0.00000000
